<mxfile host="app.diagrams.net" agent="Mozilla/5.0 (X11; Linux x86_64) AppleWebKit/537.36 (KHTML, like Gecko) Chrome/126.0.0.0 Safari/537.36" version="26.0.16">
  <diagram name="Page-1" id="oNeyLv_pdHLm7eogeKSh">
    <mxGraphModel dx="2889" dy="673" grid="1" gridSize="17" guides="1" tooltips="1" connect="1" arrows="1" fold="1" page="1" pageScale="1" pageWidth="827" pageHeight="1169" math="0" shadow="0">
      <root>
        <mxCell id="0" />
        <mxCell id="1" parent="0" />
        <mxCell id="uXJvK8asFqdfX60DhqFc-53" value="" style="rounded=1;whiteSpace=wrap;html=1;strokeColor=#FF99CC;" vertex="1" parent="1">
          <mxGeometry x="-770" y="820" width="580" height="90" as="geometry" />
        </mxCell>
        <mxCell id="uXJvK8asFqdfX60DhqFc-14" value="" style="group" vertex="1" connectable="0" parent="1">
          <mxGeometry x="-550" y="490" width="120" height="150" as="geometry" />
        </mxCell>
        <mxCell id="uXJvK8asFqdfX60DhqFc-12" value="&lt;span style=&quot;color: rgb(0, 29, 53); font-family: &amp;quot;Google Sans&amp;quot;, Arial, sans-serif; font-size: 18px; text-align: start; background-color: rgb(255, 255, 255);&quot;&gt;Rabi season&lt;/span&gt;" style="rounded=1;whiteSpace=wrap;html=1;" vertex="1" parent="uXJvK8asFqdfX60DhqFc-14">
          <mxGeometry y="90" width="120" height="60" as="geometry" />
        </mxCell>
        <mxCell id="uXJvK8asFqdfX60DhqFc-13" value="" style="endArrow=classic;html=1;rounded=0;entryX=0.5;entryY=0;entryDx=0;entryDy=0;" edge="1" parent="uXJvK8asFqdfX60DhqFc-14">
          <mxGeometry width="50" height="50" relative="1" as="geometry">
            <mxPoint x="60" as="sourcePoint" />
            <mxPoint x="58.5" y="90" as="targetPoint" />
            <Array as="points" />
          </mxGeometry>
        </mxCell>
        <mxCell id="uXJvK8asFqdfX60DhqFc-15" value="" style="group" vertex="1" connectable="0" parent="1">
          <mxGeometry x="-410" y="490" width="120" height="150" as="geometry" />
        </mxCell>
        <mxCell id="uXJvK8asFqdfX60DhqFc-16" value="&lt;span style=&quot;color: rgb(0, 29, 53); font-family: &amp;quot;Google Sans&amp;quot;, Arial, sans-serif; font-size: 18px; text-align: start; background-color: rgb(255, 255, 255);&quot;&gt;Zaid season&lt;/span&gt;" style="rounded=1;whiteSpace=wrap;html=1;" vertex="1" parent="uXJvK8asFqdfX60DhqFc-15">
          <mxGeometry y="90" width="120" height="60" as="geometry" />
        </mxCell>
        <mxCell id="uXJvK8asFqdfX60DhqFc-17" value="" style="endArrow=classic;html=1;rounded=0;entryX=0.5;entryY=0;entryDx=0;entryDy=0;" edge="1" parent="uXJvK8asFqdfX60DhqFc-15">
          <mxGeometry width="50" height="50" relative="1" as="geometry">
            <mxPoint x="60" as="sourcePoint" />
            <mxPoint x="58.5" y="90" as="targetPoint" />
            <Array as="points" />
          </mxGeometry>
        </mxCell>
        <mxCell id="uXJvK8asFqdfX60DhqFc-18" value="" style="group" vertex="1" connectable="0" parent="1">
          <mxGeometry x="-710" y="490" width="120" height="150" as="geometry" />
        </mxCell>
        <mxCell id="uXJvK8asFqdfX60DhqFc-10" value="&lt;span style=&quot;color: rgb(0, 29, 53); font-family: &amp;quot;Google Sans&amp;quot;, Arial, sans-serif; font-size: 18px; text-align: start; background-color: rgb(255, 255, 255);&quot;&gt;Kharif season&lt;/span&gt;" style="rounded=1;whiteSpace=wrap;html=1;" vertex="1" parent="uXJvK8asFqdfX60DhqFc-18">
          <mxGeometry y="90" width="120" height="60" as="geometry" />
        </mxCell>
        <mxCell id="uXJvK8asFqdfX60DhqFc-11" value="" style="endArrow=classic;html=1;rounded=0;entryX=0.5;entryY=0;entryDx=0;entryDy=0;" edge="1" parent="uXJvK8asFqdfX60DhqFc-18" target="uXJvK8asFqdfX60DhqFc-10">
          <mxGeometry width="50" height="50" relative="1" as="geometry">
            <mxPoint x="60" as="sourcePoint" />
            <mxPoint x="63" y="80" as="targetPoint" />
            <Array as="points" />
          </mxGeometry>
        </mxCell>
        <mxCell id="uXJvK8asFqdfX60DhqFc-7" value="&lt;font style=&quot;font-size: 18px;&quot;&gt;Add Categories Of Types of Farming&lt;/font&gt;" style="rounded=1;whiteSpace=wrap;html=1;" vertex="1" parent="1">
          <mxGeometry x="-750" y="430" width="500" height="60" as="geometry" />
        </mxCell>
        <mxCell id="uXJvK8asFqdfX60DhqFc-2" value="" style="shape=flexArrow;endArrow=classic;html=1;rounded=0;entryX=0.464;entryY=-0.006;entryDx=0;entryDy=0;entryPerimeter=0;" edge="1" parent="1" target="uXJvK8asFqdfX60DhqFc-7">
          <mxGeometry width="50" height="50" relative="1" as="geometry">
            <mxPoint x="-323" y="136" as="sourcePoint" />
            <mxPoint x="-520" y="300" as="targetPoint" />
            <Array as="points">
              <mxPoint x="-323" y="270" />
              <mxPoint x="-518" y="270" />
            </Array>
          </mxGeometry>
        </mxCell>
        <mxCell id="uXJvK8asFqdfX60DhqFc-31" value="" style="group" vertex="1" connectable="0" parent="1">
          <mxGeometry x="-710" y="640" width="120" height="130" as="geometry" />
        </mxCell>
        <mxCell id="uXJvK8asFqdfX60DhqFc-24" value="" style="endArrow=classic;html=1;rounded=0;" edge="1" parent="uXJvK8asFqdfX60DhqFc-31">
          <mxGeometry width="50" height="50" relative="1" as="geometry">
            <mxPoint x="59.58000000000004" as="sourcePoint" />
            <mxPoint x="59.58000000000004" y="70" as="targetPoint" />
          </mxGeometry>
        </mxCell>
        <mxCell id="uXJvK8asFqdfX60DhqFc-25" value="Add Process of Kharif Farming&lt;br&gt;Step&amp;nbsp;" style="rounded=1;whiteSpace=wrap;html=1;" vertex="1" parent="uXJvK8asFqdfX60DhqFc-31">
          <mxGeometry y="70" width="120" height="60" as="geometry" />
        </mxCell>
        <mxCell id="uXJvK8asFqdfX60DhqFc-32" value="" style="group" vertex="1" connectable="0" parent="1">
          <mxGeometry x="-552" y="640" width="120" height="130" as="geometry" />
        </mxCell>
        <mxCell id="uXJvK8asFqdfX60DhqFc-33" value="" style="endArrow=classic;html=1;rounded=0;" edge="1" parent="uXJvK8asFqdfX60DhqFc-32">
          <mxGeometry width="50" height="50" relative="1" as="geometry">
            <mxPoint x="59.58000000000004" as="sourcePoint" />
            <mxPoint x="59.58000000000004" y="70" as="targetPoint" />
          </mxGeometry>
        </mxCell>
        <mxCell id="uXJvK8asFqdfX60DhqFc-34" value="Add Process of Rabi Farming&lt;br&gt;Step&amp;nbsp;" style="rounded=1;whiteSpace=wrap;html=1;" vertex="1" parent="uXJvK8asFqdfX60DhqFc-32">
          <mxGeometry y="70" width="120" height="60" as="geometry" />
        </mxCell>
        <mxCell id="uXJvK8asFqdfX60DhqFc-35" value="" style="group" vertex="1" connectable="0" parent="1">
          <mxGeometry x="-410" y="640" width="120" height="130" as="geometry" />
        </mxCell>
        <mxCell id="uXJvK8asFqdfX60DhqFc-36" value="" style="endArrow=classic;html=1;rounded=0;" edge="1" parent="uXJvK8asFqdfX60DhqFc-35">
          <mxGeometry width="50" height="50" relative="1" as="geometry">
            <mxPoint x="59.58000000000004" as="sourcePoint" />
            <mxPoint x="59.58000000000004" y="70" as="targetPoint" />
          </mxGeometry>
        </mxCell>
        <mxCell id="uXJvK8asFqdfX60DhqFc-37" value="Add Process of Zaid Farming&lt;br&gt;Step&amp;nbsp;" style="rounded=1;whiteSpace=wrap;html=1;" vertex="1" parent="uXJvK8asFqdfX60DhqFc-35">
          <mxGeometry y="70" width="120" height="60" as="geometry" />
        </mxCell>
        <mxCell id="uXJvK8asFqdfX60DhqFc-40" value="" style="group" vertex="1" connectable="0" parent="1">
          <mxGeometry x="-710" y="770" width="120" height="120" as="geometry" />
        </mxCell>
        <mxCell id="uXJvK8asFqdfX60DhqFc-38" value="Add Subscription" style="rounded=1;whiteSpace=wrap;html=1;fillColor=#f8cecc;strokeColor=#b85450;" vertex="1" parent="uXJvK8asFqdfX60DhqFc-40">
          <mxGeometry y="60" width="120" height="60" as="geometry" />
        </mxCell>
        <mxCell id="uXJvK8asFqdfX60DhqFc-39" value="" style="endArrow=classic;html=1;rounded=0;entryX=0.5;entryY=0;entryDx=0;entryDy=0;" edge="1" parent="uXJvK8asFqdfX60DhqFc-40" target="uXJvK8asFqdfX60DhqFc-38">
          <mxGeometry width="50" height="50" relative="1" as="geometry">
            <mxPoint x="60" as="sourcePoint" />
            <mxPoint x="61" y="60" as="targetPoint" />
            <Array as="points">
              <mxPoint x="60.58000000000004" y="20" />
            </Array>
          </mxGeometry>
        </mxCell>
        <mxCell id="uXJvK8asFqdfX60DhqFc-41" value="" style="group" vertex="1" connectable="0" parent="1">
          <mxGeometry x="-552" y="770" width="120" height="120" as="geometry" />
        </mxCell>
        <mxCell id="uXJvK8asFqdfX60DhqFc-42" value="Add Subscription" style="rounded=1;whiteSpace=wrap;html=1;fillColor=#f8cecc;strokeColor=#b85450;" vertex="1" parent="uXJvK8asFqdfX60DhqFc-41">
          <mxGeometry y="60" width="120" height="60" as="geometry" />
        </mxCell>
        <mxCell id="uXJvK8asFqdfX60DhqFc-43" value="" style="endArrow=classic;html=1;rounded=0;entryX=0.5;entryY=0;entryDx=0;entryDy=0;" edge="1" parent="uXJvK8asFqdfX60DhqFc-41" target="uXJvK8asFqdfX60DhqFc-42">
          <mxGeometry width="50" height="50" relative="1" as="geometry">
            <mxPoint x="60" as="sourcePoint" />
            <mxPoint x="61" y="60" as="targetPoint" />
            <Array as="points">
              <mxPoint x="60.58000000000004" y="20" />
            </Array>
          </mxGeometry>
        </mxCell>
        <mxCell id="uXJvK8asFqdfX60DhqFc-44" value="" style="group" vertex="1" connectable="0" parent="1">
          <mxGeometry x="-404" y="769" width="120" height="120" as="geometry" />
        </mxCell>
        <mxCell id="uXJvK8asFqdfX60DhqFc-45" value="Add Subscription" style="rounded=1;whiteSpace=wrap;html=1;fillColor=#f8cecc;strokeColor=#b85450;" vertex="1" parent="uXJvK8asFqdfX60DhqFc-44">
          <mxGeometry y="60" width="120" height="60" as="geometry" />
        </mxCell>
        <mxCell id="uXJvK8asFqdfX60DhqFc-46" value="" style="endArrow=classic;html=1;rounded=0;entryX=0.5;entryY=0;entryDx=0;entryDy=0;" edge="1" parent="uXJvK8asFqdfX60DhqFc-44" target="uXJvK8asFqdfX60DhqFc-45">
          <mxGeometry width="50" height="50" relative="1" as="geometry">
            <mxPoint x="60" as="sourcePoint" />
            <mxPoint x="61" y="60" as="targetPoint" />
            <Array as="points">
              <mxPoint x="60.58000000000004" y="20" />
            </Array>
          </mxGeometry>
        </mxCell>
        <mxCell id="uXJvK8asFqdfX60DhqFc-47" value="Enterpreneurs" style="rounded=1;whiteSpace=wrap;html=1;fillColor=#d5e8d4;strokeColor=#82b366;" vertex="1" parent="1">
          <mxGeometry x="-570" y="990" width="120" height="60" as="geometry" />
        </mxCell>
        <mxCell id="uXJvK8asFqdfX60DhqFc-51" value="" style="shape=flexArrow;endArrow=classic;html=1;rounded=0;width=5.833333333333334;endSize=3.7750000000000004;entryX=0.449;entryY=1.024;entryDx=0;entryDy=0;exitX=0.5;exitY=0;exitDx=0;exitDy=0;entryPerimeter=0;strokeColor=#FF99CC;" edge="1" parent="1">
          <mxGeometry width="50" height="50" relative="1" as="geometry">
            <mxPoint x="-510" y="992" as="sourcePoint" />
            <mxPoint x="-509.58000000000015" y="914.1600000000001" as="targetPoint" />
          </mxGeometry>
        </mxCell>
        <mxCell id="uXJvK8asFqdfX60DhqFc-55" value="A" style="shape=umlActor;verticalLabelPosition=bottom;verticalAlign=top;html=1;outlineConnect=0;" vertex="1" parent="1">
          <mxGeometry x="-690" y="1100" width="30" height="30" as="geometry" />
        </mxCell>
        <mxCell id="uXJvK8asFqdfX60DhqFc-56" value="B" style="shape=umlActor;verticalLabelPosition=bottom;verticalAlign=top;html=1;outlineConnect=0;" vertex="1" parent="1">
          <mxGeometry x="-525" y="1100" width="30" height="30" as="geometry" />
        </mxCell>
        <mxCell id="uXJvK8asFqdfX60DhqFc-61" value="C" style="shape=umlActor;verticalLabelPosition=bottom;verticalAlign=top;html=1;outlineConnect=0;" vertex="1" parent="1">
          <mxGeometry x="-390" y="1100" width="30" height="30" as="geometry" />
        </mxCell>
        <mxCell id="uXJvK8asFqdfX60DhqFc-63" value="" style="endArrow=none;html=1;rounded=0;entryX=0;entryY=0.5;entryDx=0;entryDy=0;exitX=0.5;exitY=0;exitDx=0;exitDy=0;exitPerimeter=0;" edge="1" parent="1" source="uXJvK8asFqdfX60DhqFc-55" target="uXJvK8asFqdfX60DhqFc-47">
          <mxGeometry width="50" height="50" relative="1" as="geometry">
            <mxPoint x="-675" y="1090" as="sourcePoint" />
            <mxPoint x="-625" y="1040" as="targetPoint" />
          </mxGeometry>
        </mxCell>
        <mxCell id="uXJvK8asFqdfX60DhqFc-64" value="" style="endArrow=none;html=1;rounded=0;exitX=1;exitY=0.5;exitDx=0;exitDy=0;entryX=0.5;entryY=0;entryDx=0;entryDy=0;entryPerimeter=0;" edge="1" parent="1" source="uXJvK8asFqdfX60DhqFc-47" target="uXJvK8asFqdfX60DhqFc-61">
          <mxGeometry width="50" height="50" relative="1" as="geometry">
            <mxPoint x="-413" y="1060" as="sourcePoint" />
            <mxPoint x="-380" y="1090" as="targetPoint" />
          </mxGeometry>
        </mxCell>
        <mxCell id="uXJvK8asFqdfX60DhqFc-71" value="" style="endArrow=none;html=1;rounded=0;entryX=0.5;entryY=1;entryDx=0;entryDy=0;" edge="1" parent="1" target="uXJvK8asFqdfX60DhqFc-47">
          <mxGeometry width="50" height="50" relative="1" as="geometry">
            <mxPoint x="-510.42" y="1100" as="sourcePoint" />
            <mxPoint x="-510.42" y="1070" as="targetPoint" />
            <Array as="points">
              <mxPoint x="-510.42" y="1090" />
            </Array>
          </mxGeometry>
        </mxCell>
        <mxCell id="uXJvK8asFqdfX60DhqFc-75" value="" style="shape=flexArrow;endArrow=classic;html=1;rounded=0;entryX=0;entryY=0.5;entryDx=0;entryDy=0;" edge="1" parent="1">
          <mxGeometry width="50" height="50" relative="1" as="geometry">
            <mxPoint x="-520" y="950" as="sourcePoint" />
            <mxPoint x="-350" y="110" as="targetPoint" />
            <Array as="points">
              <mxPoint x="-810" y="950" />
              <mxPoint x="-810" y="890" />
              <mxPoint x="-810" y="770" />
              <mxPoint x="-810" y="550" />
              <mxPoint x="-810" y="110" />
            </Array>
          </mxGeometry>
        </mxCell>
        <mxCell id="uXJvK8asFqdfX60DhqFc-76" value="&lt;font style=&quot;color: light-dark(rgb(240, 168, 168), rgb(237, 237, 237));&quot;&gt;&lt;b&gt;Subscription Mail&amp;nbsp;&lt;/b&gt;&lt;/font&gt;&lt;div&gt;&lt;br&gt;&lt;/div&gt;" style="shape=message;html=1;html=1;outlineConnect=0;labelPosition=center;verticalLabelPosition=bottom;align=center;verticalAlign=top;flipV=0;flipH=1;direction=east;strokeColor=#EA6B66;fillStyle=solid;fillColor=#FFB570;" vertex="1" parent="1">
          <mxGeometry x="-840" y="330" width="60" height="40" as="geometry" />
        </mxCell>
        <mxCell id="uXJvK8asFqdfX60DhqFc-79" value="BUY" style="ellipse;align=center;fontStyle=0;strokeColor=default;html=1;whiteSpace=wrap;" vertex="1" parent="1">
          <mxGeometry x="-560" y="932" width="100" height="40" as="geometry" />
        </mxCell>
        <mxCell id="uXJvK8asFqdfX60DhqFc-84" value="&lt;span style=&quot;font-size: 18px;&quot;&gt;Role Mangement&lt;/span&gt;" style="rounded=1;whiteSpace=wrap;html=1;" vertex="1" parent="1">
          <mxGeometry x="-70" y="430" width="425" height="60" as="geometry" />
        </mxCell>
        <mxCell id="uXJvK8asFqdfX60DhqFc-85" value="" style="shape=flexArrow;endArrow=classic;html=1;rounded=0;exitX=1.001;exitY=0.652;exitDx=0;exitDy=0;exitPerimeter=0;entryX=0.531;entryY=0.009;entryDx=0;entryDy=0;entryPerimeter=0;" edge="1" parent="1" source="uXJvK8asFqdfX60DhqFc-83" target="uXJvK8asFqdfX60DhqFc-84">
          <mxGeometry width="50" height="50" relative="1" as="geometry">
            <mxPoint x="-238" y="141" as="sourcePoint" />
            <mxPoint x="134" y="430" as="targetPoint" />
            <Array as="points">
              <mxPoint x="-255" y="272" />
              <mxPoint x="153" y="272" />
            </Array>
          </mxGeometry>
        </mxCell>
        <mxCell id="uXJvK8asFqdfX60DhqFc-86" value="" style="group" vertex="1" connectable="0" parent="1">
          <mxGeometry x="-340" y="60" width="102" height="93" as="geometry" />
        </mxCell>
        <mxCell id="uXJvK8asFqdfX60DhqFc-82" value="" style="shape=actor;whiteSpace=wrap;html=1;labelBorderColor=#EA6B66;fillColor=#fff2cc;strokeColor=#d6b656;shadow=1;" vertex="1" parent="uXJvK8asFqdfX60DhqFc-86">
          <mxGeometry width="96" height="70" as="geometry" />
        </mxCell>
        <mxCell id="uXJvK8asFqdfX60DhqFc-83" value="&lt;font style=&quot;font-size: 18px;&quot;&gt;&lt;b&gt;Admin&lt;/b&gt;&lt;/font&gt;&lt;div&gt;&lt;br&gt;&lt;/div&gt;" style="text;html=1;align=center;verticalAlign=middle;resizable=0;points=[];autosize=1;strokeColor=none;fillColor=none;" vertex="1" parent="uXJvK8asFqdfX60DhqFc-86">
          <mxGeometry y="42" width="85" height="51" as="geometry" />
        </mxCell>
        <mxCell id="uXJvK8asFqdfX60DhqFc-87" value="Roles" style="rounded=1;whiteSpace=wrap;html=1;" vertex="1" parent="1">
          <mxGeometry x="92" y="580" width="120" height="60" as="geometry" />
        </mxCell>
        <mxCell id="uXJvK8asFqdfX60DhqFc-88" value="Admin" style="strokeWidth=2;html=1;shape=mxgraph.flowchart.terminator;whiteSpace=wrap;fillColor=#fff2cc;strokeColor=#d6b656;" vertex="1" parent="1">
          <mxGeometry x="-66" y="731" width="100" height="60" as="geometry" />
        </mxCell>
        <mxCell id="uXJvK8asFqdfX60DhqFc-89" value="Maintaince" style="strokeWidth=2;html=1;shape=mxgraph.flowchart.terminator;whiteSpace=wrap;fillColor=#dae8fc;strokeColor=#6c8ebf;" vertex="1" parent="1">
          <mxGeometry x="102" y="731" width="100" height="60" as="geometry" />
        </mxCell>
        <mxCell id="uXJvK8asFqdfX60DhqFc-90" value="Enterpreneur" style="strokeWidth=2;html=1;shape=mxgraph.flowchart.terminator;whiteSpace=wrap;fillColor=#d5e8d4;strokeColor=#82b366;" vertex="1" parent="1">
          <mxGeometry x="272" y="731" width="100" height="60" as="geometry" />
        </mxCell>
        <mxCell id="uXJvK8asFqdfX60DhqFc-91" value="" style="endArrow=classic;html=1;rounded=0;" edge="1" parent="1">
          <mxGeometry width="50" height="50" relative="1" as="geometry">
            <mxPoint x="153" y="494" as="sourcePoint" />
            <mxPoint x="153" y="580" as="targetPoint" />
            <Array as="points">
              <mxPoint x="153" y="529" />
            </Array>
          </mxGeometry>
        </mxCell>
        <mxCell id="uXJvK8asFqdfX60DhqFc-93" value="" style="endArrow=classic;html=1;rounded=0;entryX=0.11;entryY=0.11;entryDx=0;entryDy=0;entryPerimeter=0;" edge="1" parent="1">
          <mxGeometry width="50" height="50" relative="1" as="geometry">
            <mxPoint x="92" y="612" as="sourcePoint" />
            <mxPoint x="-16.750000000000455" y="730.9999999999997" as="targetPoint" />
            <Array as="points">
              <mxPoint x="-17" y="612" />
            </Array>
          </mxGeometry>
        </mxCell>
        <mxCell id="uXJvK8asFqdfX60DhqFc-94" value="" style="endArrow=classic;html=1;rounded=0;exitX=1;exitY=0.5;exitDx=0;exitDy=0;entryX=0.5;entryY=0;entryDx=0;entryDy=0;entryPerimeter=0;" edge="1" parent="1" source="uXJvK8asFqdfX60DhqFc-87" target="uXJvK8asFqdfX60DhqFc-90">
          <mxGeometry width="50" height="50" relative="1" as="geometry">
            <mxPoint x="255" y="612" as="sourcePoint" />
            <mxPoint x="391" y="612" as="targetPoint" />
            <Array as="points">
              <mxPoint x="323" y="612" />
            </Array>
          </mxGeometry>
        </mxCell>
        <mxCell id="uXJvK8asFqdfX60DhqFc-95" value="" style="endArrow=classic;html=1;rounded=0;exitX=0.5;exitY=1;exitDx=0;exitDy=0;entryX=0.5;entryY=0;entryDx=0;entryDy=0;entryPerimeter=0;" edge="1" parent="1" source="uXJvK8asFqdfX60DhqFc-87" target="uXJvK8asFqdfX60DhqFc-89">
          <mxGeometry width="50" height="50" relative="1" as="geometry">
            <mxPoint x="138" y="662" as="sourcePoint" />
            <mxPoint x="147" y="731" as="targetPoint" />
          </mxGeometry>
        </mxCell>
      </root>
    </mxGraphModel>
  </diagram>
</mxfile>
